<?xml version="1.0" encoding="UTF-8"?>
<svg width="241px" height="45px" viewBox="0 0 241 45" version="1.1" xmlns="http://www.w3.org/2000/svg" xmlns:xlink="http://www.w3.org/1999/xlink">
    <title>Artboard</title>
    <g id="Artboard" stroke="none" stroke-width="1" fill="none" fill-rule="evenodd">
        <g id="Logo" transform="translate(0.000000, 1.000000)" fill-rule="nonzero">
            <path d="M41.9895062,16.7547996 L22.1915094,0.327007141 C21.4718226,-0.10900238 20.517801,-0.10900238 19.7981142,0.327007141 L0,16.7547996 C0.0349113106,17.4934476 0.368753787,17.6912884 1.00152743,17.3483221 C0.333842477,16.9526404 0,16.7547996 0,16.7547996 C0,16.7547996 0,25.2253801 0,42.166541 C0,43.1791325 0.940081962,44 2.09958691,44 L39.8900367,44 C41.0495417,44 41.9895062,43.1791325 41.9895062,42.166541 L41.9895062,16.7547996 C42.2277193,16.9732574 38.3241486,18.8835427 39.0320496,18.6056684 C39.7399506,18.3277942 41.9895062,18.6056684 41.9895062,17.9597931 C41.9895062,17.3139177 41.9895062,17.1254391 41.9895062,16.7547996 Z" id="Path" fill="#44C7DE"></path>
            <path d="M28.1754783,23.9922793 C28.1754783,23.9922793 27.0890582,22.6041125 25.1494672,20.9905722 C23.2094148,19.377032 20.4937105,16.5252764 20.454951,16 C20.454951,16 18.0107941,19.3395441 16.5755382,20.3523859 C15.1400517,21.3658972 11.1851963,25.107097 11.0276204,27.5571969 C10.8855022,29.7665265 11.2604083,31.1968671 12.8899231,32.3223957 C14.5192072,33.4483705 17.8167657,34.16064 19.4850401,30.5586808 C19.4850401,30.5586808 19.7826579,30.1838021 19.7826579,30.5336889 C19.7826579,30.8840219 19.8989364,34.2487811 17.5715195,35.5122114 C17.5715195,35.5122114 17.3258118,35.8118912 17.4937697,36 L23.5008033,35.962289 C23.5008033,35.962289 23.6946009,35.7369155 23.4809621,35.6059311 C23.2677848,35.4742773 21.0757954,34.1608631 21.2310642,30.5216392 C21.2310642,30.5216392 21.334423,30.2148189 21.4313218,30.4337212 C21.5284513,30.6524005 23.248405,34.7738344 27.6962907,32.5973067 C32.1453299,30.4214484 28.9119092,24.7054413 28.1754783,23.9922793 Z" id="Path" fill="#FFFFFF"></path>
        </g>
        <text id="Asdem-Conseil" font-family="Raleway-ExtraBold, Raleway" font-size="24" font-weight="600" line-spacing="56" letter-spacing="0.96191904" fill="#434343">
            <tspan x="55.2635262" y="24">Asdem Conseil</tspan>
        </text>
    </g>
</svg>